<?xml version="1.0" encoding="UTF-8" standalone="no"?>
<!-- Created with Inkscape (http://www.inkscape.org/) -->

<svg
   width="100.0px"
   height="100.0px"
   viewBox="0 0 100.0 100.0"
   version="1.1"
   id="SVGRoot"
   sodipodi:docname="handlebars.svg"
   inkscape:version="1.2.1 (9c6d41e410, 2022-07-14)"
   xmlns:inkscape="http://www.inkscape.org/namespaces/inkscape"
   xmlns:sodipodi="http://sodipodi.sourceforge.net/DTD/sodipodi-0.dtd"
   xmlns="http://www.w3.org/2000/svg"
   xmlns:svg="http://www.w3.org/2000/svg">
  <defs
     id="defs44872" />
  <sodipodi:namedview
     id="namedview32486"
     pagecolor="#181825"
     bordercolor="#000000"
     borderopacity="0.24705882"
     inkscape:showpageshadow="2"
     inkscape:pageopacity="0"
     inkscape:pagecheckerboard="0"
     inkscape:deskcolor="#313244"
     inkscape:document-units="px"
     showgrid="true"
     inkscape:zoom="4"
     inkscape:cx="55"
     inkscape:cy="92.500001"
     inkscape:window-width="1920"
     inkscape:window-height="1017"
     inkscape:window-x="1912"
     inkscape:window-y="-8"
     inkscape:window-maximized="1"
     inkscape:current-layer="SVGRoot"
     showborder="false">
    <inkscape:grid
       type="xygrid"
       id="grid32609" />
  </sodipodi:namedview>
  <path
     id="path19082"
     style="fill:none;stroke:#c19770;stroke-width:5;stroke-linecap:round;stroke-linejoin:round;stroke-dasharray:none;stroke-opacity:1"
     class="cls-1"
     d="M 50.025641,37.740812 A 10.611989,10.611989 0 0 0 34.367391,36.256618 C 28.207987,41.74814 23.087516,52.879595 13.366036,52.879595 A 6.6046649,6.6046649 0 0 1 9.6555504,41.74814 c -7.4209705,0 -9.57305109,12.68986 -3.7104853,18.552426 A 29.015999,29.015999 0 0 0 35.628957,64.011051 35.323825,35.323825 0 0 0 50.025641,52.95381 Z m -0.0088,0 a 10.611989,10.611989 0 0 1 15.65825,-1.484194 c 6.0852,5.491522 11.279875,16.622977 20.927141,16.622977 A 6.6046649,6.6046649 0 0 0 90.312689,41.74814 c 7.42097,0 9.647262,12.68986 3.710485,18.552426 A 29.015999,29.015999 0 0 1 64.339292,64.011051 33.913841,33.913841 0 0 1 50.016813,52.95381 Z" />
</svg>
